# Blender 4.2.1 LTS
# www.blender.org
mtllib sala305_correct.mtl
o sala305
v 3.000000 0.010000 -6.300000
v 3.000000 0.010000 -6.000000
v 5.400000 0.010000 -6.000000
v 5.400000 0.010000 -6.300000
v 5.400000 1.710000 -6.000000
v 5.400000 1.710000 -6.300000
v 3.000000 1.710000 -6.000000
v 3.000000 1.710000 -6.300000
v 8.600000 0.000000 -6.000000
v 6.328610 0.009617 -6.000000
v 8.000000 3.500000 -6.000000
v 6.328610 1.709620 -6.000000
v 8.600000 0.009617 -6.000000
v 8.000000 1.709620 -6.000000
v 1.900000 1.900000 -6.000000
v 1.900000 0.000000 -6.000000
v 0.000000 3.500000 -6.000000
v 1.100000 1.900000 -6.000000
v 0.000000 0.000000 -6.000000
v 1.100000 0.000000 -6.000000
v 0.000000 3.500000 -6.300000
v 8.000000 3.500000 -6.300000
v 1.900000 0.000000 -6.300000
v 1.900000 1.900000 -6.300000
v 8.000000 1.709620 -6.300000
v 6.328610 1.709620 -6.300000
v 6.328610 0.009617 -6.300000
v 8.600000 0.009617 -6.300000
v 0.000000 0.000000 -6.300000
v 1.100000 1.900000 -6.300000
v 1.100000 0.000000 -6.300000
v 8.600000 -0.100000 -6.300000
v -0.100000 -0.100000 -6.300000
v -0.100000 0.000000 -6.300000
v -0.100000 0.000000 0.400000
v 8.600000 0.000000 0.400000
v 8.600000 -0.100000 0.400000
v -0.100000 -0.100000 0.400000
v 8.000000 0.009617 -6.300000
v 8.000000 3.500000 -6.300000
v 8.600000 3.500000 -6.300000
v 8.600000 0.009617 -6.300000
v 8.600000 0.009617 -6.000000
v 8.000000 0.009617 -6.000000
v 8.000000 3.500000 -2.000000
v 8.600000 3.500000 0.000000
v 8.000000 0.000000 -2.000000
v 8.000000 0.000000 -6.000000
v 8.600000 0.000000 0.000000
v 8.600000 0.000000 -6.000000
v 0.024969 3.498220 -0.000408
v 0.024969 3.398220 -0.000408
v 8.674970 3.398220 -0.000408
v 8.674970 3.498220 -0.000408
v 0.024969 3.498220 -6.000410
v 0.024969 3.398220 -6.000410
v 8.024970 3.398220 -6.000410
v 8.024970 3.398220 -2.000410
v 8.024970 3.498220 -2.000410
v 8.024970 3.498220 -6.000410
v 3.378800 0.997710 0.400000
v 3.378800 0.997710 0.000000
v 1.978800 0.997710 0.000000
v 1.978800 0.997710 0.400000
v 3.378800 2.997710 0.400000
v 3.378800 2.997710 0.000000
v 1.978800 2.997710 0.400000
v 1.978800 2.997710 0.000000
v 8.600000 3.500000 0.000000
v 7.100000 3.000000 0.000000
v 5.700000 3.000000 0.000000
v -0.100000 3.500000 0.000000
v 8.600000 0.000000 0.000000
v 7.100000 1.000000 0.000000
v -0.100000 0.000000 0.000000
v 5.700000 1.000000 0.000000
v 8.600000 3.500000 0.400000
v 7.100000 3.000000 0.400000
v 7.100000 1.000000 0.400000
v 5.700000 3.000000 0.400000
v 5.700000 1.000000 0.400000
v 8.600000 0.000000 0.400000
v -0.100000 3.500000 0.400000
v -0.100000 0.000000 0.400000
v 0.000000 3.500000 -6.000000
v 0.000000 3.500000 0.000000
v 0.000000 0.000000 0.000000
v 0.000000 0.000000 -6.000000
v -0.100000 0.000000 -6.000000
v -0.100000 0.000000 0.000000
v -0.100000 3.500000 0.000000
v -0.100000 3.500000 -6.000000
v 6.328610 0.009617 -6.200000
v 8.000000 0.009617 -6.200000
v 8.000000 1.709620 -6.200000
v 6.328610 1.709620 -6.200000
v 6.328610 0.009617 -6.000000
v 8.000000 0.009617 -6.000000
v 6.328610 1.709620 -6.000000
v 8.000000 1.709620 -6.000000
v 8.000000 0.000000 -6.300000
v 8.000000 3.500000 -6.300000
v 8.000000 3.500000 -6.000000
v 8.000000 0.000000 -6.000000
v -0.100000 3.500000 -6.300000
v -0.100000 3.500000 -6.000000
v -0.100000 0.000000 -6.300000
v -0.100000 0.000000 -6.000000
v 1.100000 0.000000 -6.300000
v 1.100000 0.000000 -6.000000
v 1.100000 1.900000 -6.300000
v 1.100000 1.900000 -6.000000
v 1.900000 1.900000 -6.300000
v 1.900000 0.000000 -6.300000
v 1.900000 0.000000 -6.000000
v 1.900000 1.900000 -6.000000
v 5.400000 0.010000 -6.000000
v 5.400000 1.710000 -6.000000
v 3.000000 1.710000 -6.000000
v 3.000000 0.010000 -6.000000
v 3.000000 1.710000 -6.200000
v 3.000000 0.010000 -6.200000
v 5.400000 0.010000 -6.200000
v 5.400000 1.710000 -6.200000
vn -0.0000 1.0000 -0.0000
vn -1.0000 -0.0000 -0.0000
vn -0.0000 -1.0000 -0.0000
vn 1.0000 -0.0000 -0.0000
vn -0.0000 0.0002 1.0000
vn -0.0000 -0.0000 1.0000
vn -0.0000 0.0001 1.0000
vn -0.0000 -0.0000 -1.0000
vn -0.9578 -0.0000 0.2873
vn 0.9510 -0.0000 -0.3091
vt -1.200000 0.000000
vt -1.200000 -0.300000
vt 1.200000 -0.300000
vt 1.200000 0.000000
vt -0.850000 0.000000
vt -0.850000 -0.300000
vt 0.850000 -0.300000
vt 0.850000 0.000000
vt -0.010000 5.400000
vt 0.000000 8.600000
vt -0.009617 6.328610
vt -3.500000 8.000000
vt -1.710000 5.400000
vt -1.709620 6.328610
vt -0.009617 8.600000
vt -1.709620 8.000000
vt -1.900000 1.900000
vt -1.710000 3.000000
vt 0.000000 1.900000
vt -0.010000 3.000000
vt -3.500000 0.000000
vt -1.900000 1.100000
vt 0.000000 0.000000
vt 0.000000 1.100000
vt 4.000000 0.000000
vt 4.000000 -0.300000
vt -4.000000 -0.300000
vt -4.000000 0.000000
vt -0.950000 0.000000
vt -0.950000 -0.300000
vt 0.950000 -0.300000
vt 0.950000 0.000000
vt 0.895191 0.000000
vt 0.895191 -0.300000
vt -0.895191 -0.300000
vt -0.895191 0.000000
vt -0.835696 0.000000
vt -0.835696 -0.300000
vt 0.835696 -0.300000
vt 0.835696 0.000000
vt 1.071390 -0.300000
vt 1.071390 0.000000
vt 1.750000 0.000000
vt 1.750000 -0.300000
vt -1.750000 -0.300000
vt -1.750000 0.000000
vt -0.400000 0.000000
vt -0.400000 -0.300000
vt 0.400000 -0.300000
vt 0.400000 0.000000
vt 0.100000 8.600000
vt 0.100000 -0.100000
vt -0.000000 -0.100000
vt -0.100000 6.300000
vt -0.100000 -0.400000
vt 0.000000 6.000000
vt 1.900000 6.000000
vt 1.100000 6.000000
vt 1.100000 6.300000
vt 1.900000 6.300000
vt 8.600000 -0.400000
vt 8.600000 6.000000
vt 0.000000 6.300000
vt 0.000000 -4.400000
vt 0.000000 2.300000
vt -0.100000 2.000000
vt -0.109617 2.300000
vt -0.109617 2.000000
vt -0.100000 -4.400000
vt 0.000000 -3.400000
vt -0.100000 -3.400000
vt -0.100000 3.300000
vt 0.000000 3.300000
vt 8.600000 6.300000
vt -4.425000 0.100000
vt -4.425000 0.000000
vt 4.275000 0.000000
vt 4.275000 0.100000
vt -0.009617 8.000000
vt -3.500000 8.600000
vt 0.471392 -0.300000
vt 0.471392 0.000000
vt 8.000000 6.300000
vt 8.000000 2.000000
vt 8.600000 -0.000000
vt 6.000000 -2.000000
vt 2.500000 -2.000000
vt 5.990380 2.000000
vt 2.500000 2.300000
vt 5.990380 2.300000
vt 6.000000 2.000000
vt -2.500000 3.300000
vt -2.500000 -3.000000
vt -5.990380 3.000000
vt -6.000000 -3.000000
vt -6.000000 3.000000
vt -5.990380 3.300000
vt 8.000000 6.000000
vt 1.044030 -2.500000
vt 1.044030 -6.000000
vt -1.044030 -6.000000
vt -1.044030 -2.500000
vt 6.000000 -0.300000
vt 5.990380 -0.300000
vt 5.990380 0.300000
vt 6.000000 0.300000
vt 4.325000 0.000000
vt 4.325000 -0.100000
vt -4.325000 -0.100000
vt -4.325000 0.000000
vt 0.000000 3.000000
vt -0.100000 3.000000
vt -0.100000 -3.000000
vt 0.000000 -3.000000
vt 0.200000 6.100000
vt 8.200000 6.100000
vt 8.200000 2.100000
vt 0.200000 0.100000
vt 8.850000 0.100000
vt 0.000000 4.000000
vt -0.100000 4.000000
vt -0.100000 -4.000000
vt 0.000000 -4.000000
vt 0.000000 -2.000000
vt -0.100000 -2.000000
vt 0.000000 2.000000
vt -1.051490 0.000000
vt -1.051490 -0.100000
vt 1.051490 -0.100000
vt 1.051490 0.000000
vt -0.700000 -0.300000
vt -0.700000 0.100000
vt 0.700000 0.100000
vt 0.700000 -0.300000
vt -1.000000 -0.300000
vt -1.000000 0.100000
vt 1.000000 0.100000
vt 1.000000 -0.300000
vt -3.000000 7.100000
vt -3.000000 5.700000
vt -3.500000 -0.100000
vt -2.997710 3.378800
vt -0.997710 3.378800
vt -1.000000 7.100000
vt -1.000000 5.700000
vt -0.997710 1.978800
vt -2.997710 1.978800
vt 1.750000 0.100000
vt -1.750000 0.100000
vt -4.300000 -0.300000
vt -4.300000 0.100000
vt 4.400000 0.100000
vt 4.400000 -0.300000
vt -6.000000 3.500000
vt 0.000000 3.500000
vt -6.000000 0.000000
vt 0.100000 -3.000000
vt 0.100000 3.000000
vt -1.200000 -0.200000
vt 0.471392 -0.200000
vt -0.850000 -0.200000
vt 0.850000 -0.200000
vt -0.471392 0.000000
vt -0.471392 -0.200000
vt 1.200000 -0.200000
vt -3.000000 0.200000
vt 0.500000 0.200000
vt -1.290380 0.100000
vt 0.500000 -0.100000
vt -1.290380 -0.100000
vt -3.000000 -0.100000
vt -2.990380 0.100000
vt -2.990380 -0.100000
vt 4.400000 0.200000
vt 4.400000 -0.100000
vt -3.700000 -0.100000
vt -3.700000 0.200000
vt 1.750000 0.200000
vt 1.750000 -0.100000
vt -1.750000 -0.100000
vt -1.750000 0.200000
vt -4.400000 -0.100000
vt -4.400000 0.200000
vt -3.200000 0.200000
vt -3.200000 -0.100000
vt 0.950000 -0.700000
vt -0.950000 -0.700000
vt -0.950000 -1.000000
vt 0.950000 -1.000000
vt 3.500000 -0.100000
vt 3.500000 8.000000
vt 1.900000 1.900000
vt 0.000000 8.000000
vt 1.900000 1.100000
vt 0.400000 -0.700000
vt -0.400000 -0.700000
vt -0.400000 -1.000000
vt 0.400000 -1.000000
vt 3.700000 -0.100000
vt -2.400000 -0.100000
vt -2.400000 0.200000
vt 3.700000 0.200000
vt 0.010000 5.400000
vt 0.009617 6.328610
vt 1.710000 5.400000
vt 1.709620 6.328610
vt 0.009617 8.000000
vt 1.710000 3.000000
vt 0.010000 3.000000
vt 1.709620 8.000000
s 0
f 1/1/1 2/2/1 3/3/1
f 3/3/1 4/4/1 1/1/1
f 4/5/2 3/6/2 5/7/2
f 5/7/2 6/8/2 4/5/2
f 6/1/3 5/2/3 7/3/3
f 7/3/3 8/4/3 6/1/3
f 8/5/4 7/6/4 2/7/4
f 2/7/4 1/8/4 8/5/4
f 3/9/5 9/10/5 10/11/5
f 11/12/6 5/13/6 12/14/6
f 10/11/6 5/13/6 3/9/6
f 10/11/6 12/14/6 5/13/6
f 9/10/6 13/15/6 10/11/6
f 12/14/6 14/16/6 11/12/6
f 11/12/6 15/17/6 7/18/6
f 7/18/6 5/13/6 11/12/6
f 16/19/6 2/20/6 7/18/6
f 7/18/6 15/17/6 16/19/6
f 16/19/6 9/10/6 3/9/6
f 3/9/7 2/20/7 16/19/7
f 17/21/6 18/22/6 15/17/6
f 15/17/6 11/12/6 17/21/6
f 19/23/6 20/24/6 18/22/6
f 18/22/6 17/21/6 19/23/6
f 21/25/1 17/26/1 11/27/1
f 11/27/1 22/28/1 21/25/1
f 23/29/2 16/30/2 15/31/2
f 15/31/2 24/32/2 23/29/2
f 22/33/4 11/34/4 14/35/4
f 14/35/4 25/36/4 22/33/4
f 25/37/3 14/38/3 12/39/3
f 12/39/3 26/40/3 25/37/3
f 26/5/4 12/6/4 10/7/4
f 10/7/4 27/8/4 26/5/4
f 27/1/1 10/2/1 13/41/1
f 13/41/1 28/42/1 27/1/1
f 29/43/2 19/44/2 17/45/2
f 17/45/2 21/46/2 29/43/2
f 24/47/3 15/48/3 18/49/3
f 18/49/3 30/50/3 24/47/3
f 30/29/4 18/30/4 20/31/4
f 20/31/4 31/32/4 30/29/4
f 32/51/8 4/9/8 27/11/8
f 26/14/8 27/11/8 4/9/8
f 32/51/8 29/23/8 31/24/8
f 4/9/8 6/13/8 26/14/8
f 22/12/8 25/16/8 26/14/8
f 31/24/8 23/19/8 32/51/8
f 23/19/8 4/9/8 32/51/8
f 26/14/8 6/13/8 22/12/8
f 23/19/8 1/20/8 4/9/8
f 22/12/8 6/13/8 8/18/8
f 8/18/8 24/17/8 22/12/8
f 23/19/8 8/18/8 1/20/8
f 27/11/8 28/15/8 32/51/8
f 8/18/8 23/19/8 24/17/8
f 29/23/8 21/21/8 30/22/8
f 30/22/8 31/24/8 29/23/8
f 21/21/8 22/12/8 24/17/8
f 24/17/8 30/22/8 21/21/8
f 33/52/8 34/53/8 29/23/8
f 29/23/8 32/51/8 33/52/8
f 34/54/1 35/55/1 19/56/1
f 35/55/1 16/57/1 20/58/1
f 20/58/1 19/56/1 35/55/1
f 31/59/1 20/58/1 16/57/1
f 16/57/1 23/60/1 31/59/1
f 36/61/1 9/62/1 16/57/1
f 16/57/1 35/55/1 36/61/1
f 19/56/1 29/63/1 34/54/1
f 37/64/4 32/65/4 9/66/4
f 28/67/4 13/68/4 9/66/4
f 9/66/4 32/65/4 28/67/4
f 9/66/4 36/69/4 37/64/4
f 38/70/2 35/71/2 34/72/2
f 34/72/2 33/73/2 38/70/2
f 32/74/3 37/61/3 38/55/3
f 38/55/3 33/54/3 32/74/3
f 35/75/6 38/76/6 37/77/6
f 37/77/6 36/78/6 35/75/6
f 39/79/8 40/12/8 41/80/8
f 41/80/8 42/15/8 39/79/8
f 42/42/3 43/41/3 44/81/3
f 44/81/3 39/82/3 42/42/3
f 41/74/1 40/83/1 45/84/1
f 45/84/1 46/85/1 41/74/1
f 47/86/2 45/87/2 44/88/2
f 40/89/2 39/90/2 44/88/2
f 44/88/2 45/87/2 40/89/2
f 44/88/2 48/91/2 47/86/2
f 41/92/4 46/93/4 43/94/4
f 49/95/4 50/96/4 43/94/4
f 43/94/4 46/93/4 49/95/4
f 43/94/4 42/97/4 41/92/4
f 50/62/3 49/85/3 47/84/3
f 47/84/3 48/98/3 50/62/3
f 45/99/9 47/100/9 49/101/9
f 49/101/9 46/102/9 45/99/9
f 48/103/8 44/104/8 43/105/8
f 43/105/8 50/106/8 48/103/8
f 51/107/6 52/108/6 53/109/6
f 53/109/6 54/110/6 51/107/6
f 55/111/2 56/112/2 52/113/2
f 52/113/2 51/114/2 55/111/2
f 56/115/3 57/116/3 58/117/3
f 58/117/3 52/118/3 56/115/3
f 58/117/3 53/119/3 52/118/3
f 55/115/1 51/118/1 59/117/1
f 51/118/1 54/119/1 59/117/1
f 59/117/1 60/116/1 55/115/1
f 60/120/8 57/121/8 56/122/8
f 56/122/8 55/123/8 60/120/8
f 59/124/4 58/125/4 57/66/4
f 57/66/4 60/126/4 59/124/4
f 54/127/10 53/128/10 58/129/10
f 58/129/10 59/130/10 54/127/10
f 61/131/1 62/132/1 63/133/1
f 63/133/1 64/134/1 61/131/1
f 65/135/2 66/136/2 62/137/2
f 62/137/2 61/138/2 65/135/2
f 67/131/3 68/132/3 66/133/3
f 66/133/3 65/134/3 67/131/3
f 64/135/4 63/136/4 68/137/4
f 68/137/4 67/138/4 64/135/4
f 69/80/8 70/139/8 71/140/8
f 72/141/8 69/80/8 66/142/8
f 71/140/8 66/142/8 69/80/8
f 71/140/8 62/143/8 66/142/8
f 69/80/8 73/10/8 74/144/8
f 74/144/8 70/139/8 69/80/8
f 73/10/8 75/53/8 76/145/8
f 75/53/8 63/146/8 62/143/8
f 76/145/8 74/144/8 73/10/8
f 62/143/8 76/145/8 75/53/8
f 62/143/8 71/140/8 76/145/8
f 72/141/8 68/147/8 63/146/8
f 63/146/8 75/53/8 72/141/8
f 66/142/8 68/147/8 72/141/8
f 77/80/6 78/139/6 79/144/6
f 77/80/6 65/142/6 80/140/6
f 80/140/6 78/139/6 77/80/6
f 81/145/6 80/140/6 65/142/6
f 65/142/6 61/143/6 81/145/6
f 82/10/6 79/144/6 81/145/6
f 81/145/6 61/143/6 82/10/6
f 83/141/6 67/147/6 65/142/6
f 83/141/6 84/53/6 64/146/6
f 84/53/6 82/10/6 61/143/6
f 65/142/6 77/80/6 83/141/6
f 61/143/6 64/146/6 84/53/6
f 64/146/6 67/147/6 83/141/6
f 79/144/6 82/10/6 77/80/6
f 79/131/1 74/132/1 76/133/1
f 76/133/1 81/134/1 79/131/1
f 78/135/2 70/136/2 74/137/2
f 74/137/2 79/138/2 78/135/2
f 80/131/3 71/132/3 70/133/3
f 70/133/3 78/134/3 80/131/3
f 81/135/4 76/136/4 71/137/4
f 71/137/4 80/138/4 81/135/4
f 83/44/2 72/148/2 75/149/2
f 75/149/2 84/45/2 83/44/2
f 77/150/1 69/151/1 72/152/1
f 72/152/1 83/153/1 77/150/1
f 82/44/4 73/148/4 69/149/4
f 69/149/4 77/45/4 82/44/4
f 84/153/3 75/152/3 73/151/3
f 73/151/3 82/150/3 84/153/3
f 85/154/4 86/155/4 87/23/4
f 87/23/4 88/156/4 85/154/4
f 89/111/3 88/112/3 87/113/3
f 87/113/3 90/114/3 89/111/3
f 89/156/2 90/23/2 91/155/2
f 91/155/2 92/154/2 89/156/2
f 92/43/8 85/148/8 88/149/8
f 88/149/8 89/46/8 92/43/8
f 91/114/1 86/157/1 85/158/1
f 85/158/1 92/111/1 91/114/1
f 90/43/6 87/148/6 86/149/6
f 86/149/6 91/46/6 90/43/6
f 93/11/6 94/79/6 95/16/6
f 95/16/6 96/14/6 93/11/6
f 93/1/1 97/159/1 98/160/1
f 98/160/1 94/82/1 93/1/1
f 96/5/4 99/161/4 97/162/4
f 97/162/4 93/8/4 96/5/4
f 95/163/3 100/164/3 99/165/3
f 99/165/3 96/4/3 95/163/3
f 101/166/4 102/167/4 95/168/4
f 103/169/4 100/170/4 95/168/4
f 104/171/4 101/166/4 94/172/4
f 95/168/4 102/167/4 103/169/4
f 95/168/4 94/172/4 101/166/4
f 94/172/4 98/173/4 104/171/4
f 105/174/1 106/175/1 103/176/1
f 103/176/1 102/177/1 105/174/1
f 107/178/2 108/179/2 106/180/2
f 106/180/2 105/181/2 107/178/2
f 108/182/3 107/183/3 109/184/3
f 109/184/3 110/185/3 108/182/3
f 109/186/4 111/187/4 112/188/4
f 112/188/4 110/189/4 109/186/4
f 105/190/8 102/191/8 113/192/8
f 101/193/8 114/19/8 113/192/8
f 107/53/8 105/190/8 111/194/8
f 113/192/8 102/191/8 101/193/8
f 113/192/8 111/194/8 105/190/8
f 111/194/8 109/24/8 107/53/8
f 113/186/2 114/187/2 115/188/2
f 115/188/2 116/189/2 113/186/2
f 111/195/3 113/196/3 116/197/3
f 116/197/3 112/198/3 111/195/3
f 104/199/3 115/200/3 114/201/3
f 114/201/3 101/202/3 104/199/3
f 117/203/6 104/193/6 97/204/6
f 97/204/6 118/205/6 117/203/6
f 97/204/6 99/206/6 118/205/6
f 115/19/6 104/193/6 117/203/6
f 104/193/6 98/207/6 97/204/6
f 116/192/6 119/208/6 118/205/6
f 118/205/6 99/206/6 116/192/6
f 115/19/6 120/209/6 119/208/6
f 119/208/6 116/192/6 115/19/6
f 106/190/6 112/194/6 116/192/6
f 116/192/6 99/206/6 106/190/6
f 108/53/6 110/24/6 112/194/6
f 103/191/6 106/190/6 99/206/6
f 112/194/6 106/190/6 108/53/6
f 117/203/7 120/209/7 115/19/7
f 99/206/6 100/210/6 103/191/6
f 121/5/4 119/161/4 120/162/4
f 120/162/4 122/8/4 121/5/4
f 121/18/6 122/20/6 123/9/6
f 123/9/6 124/13/6 121/18/6
f 124/1/3 118/159/3 119/165/3
f 119/165/3 121/4/3 124/1/3
f 123/5/2 117/161/2 118/162/2
f 118/162/2 124/8/2 123/5/2
f 122/1/1 120/159/1 117/165/1
f 117/165/1 123/4/1 122/1/1
